<?xml version="1.0" encoding="UTF-8" standalone="no"?><!DOCTYPE svg PUBLIC "-//W3C//DTD SVG 1.1//EN" "http://www.w3.org/Graphics/SVG/1.1/DTD/svg11.dtd"><svg width="100%" height="100%" viewBox="0 0 216 288" version="1.1" xmlns="http://www.w3.org/2000/svg" xmlns:xlink="http://www.w3.org/1999/xlink" xml:space="preserve" xmlns:serif="http://www.serif.com/" style="fill-rule:evenodd;clip-rule:evenodd;stroke-linejoin:round;stroke-miterlimit:1.41421;"><g><path d="M175.581,65.824c-1.751,-0.154 -2.459,-2.333 -1.132,-3.486c2.478,-2.154 5.252,-4.821 5.034,-5.798c-0.346,-1.552 1.314,-4.993 2.259,-6.447c0.279,-0.43 0.978,-1.438 0.914,-2.528c-0.054,-0.936 0.533,-1.523 1.048,-0.59c0.514,0.934 0.448,1.588 0.001,3.072c-0.217,0.722 -0.29,1.271 -0.084,1.367c0.363,0.169 1.555,-1.645 2.434,-3.448c0.907,-1.861 1.934,-3.957 2.728,-4.256c0.614,-0.231 0.675,0.639 0.179,1.898c-0.496,1.26 -2.335,3.475 -1.836,3.983c0.498,0.509 1.938,-2.273 2.442,-3.403c0.505,-1.131 0.579,-2.685 1.457,-2.525c0.602,0.11 0.823,0.719 0.334,2.275c-0.489,1.556 -3.008,4.603 -2.497,4.905c0.511,0.301 2.456,-3.035 2.719,-3.753c0.271,-0.743 1.062,-0.818 0.961,0.544c-0.103,1.363 -1.272,2.784 -2.133,3.99c-0.861,1.207 -1.58,1.617 -1.264,1.943c0.311,0.32 1.1,-0.181 1.704,-1.368c0.603,-1.187 1.188,-2.466 1.617,-1.849c0.429,0.616 -0.014,2.479 -1.514,4.361c-1.5,1.882 -4.295,3.89 -6.779,4.379c0,0 -4.577,5.314 -4.782,7.071l-3.81,-0.337Z" style="fill:#f9b19b;fill-rule:nonzero;"/><path d="M128.15,84.863c0,0 16.067,-3.898 26.274,-7.767c10.207,-3.87 25.059,-20.556 25.059,-20.556c0,0 4.701,-2.09 6.905,-4.135c2.205,-2.045 -0.968,3.597 -2.304,6.492c-1.337,2.896 -16.344,24.386 -22.416,29.149c-3.929,3.082 -13.202,7.489 -19.257,10.215c-3.17,1.427 -6.899,0.168 -8.557,-2.887l-5.704,-10.511Z" style="fill:#f9b19b;fill-rule:nonzero;"/><path d="M127.047,128.723l7.719,2.502c0,0 18.58,29.576 17.614,42.811c-0.967,13.235 -45.471,44.961 -42.464,40.429c3.007,-4.532 7.644,-27.439 14.89,-34.17c5.817,-5.406 8.194,-5.519 8.194,-5.519c0,0 -12.323,-16.332 -13.773,-21.451c-1.45,-5.119 -2.246,-23.646 -2.246,-23.646l10.066,-0.956Z" style="fill:#638398;fill-rule:nonzero;"/><path d="M118.757,62.701l-6.329,-5.512c0,0 2.288,16.069 -4.192,20.944c-6.48,4.876 17.101,3.808 17.101,3.808c0,0 -1.942,-11.556 0.706,-17.715l-7.286,-1.525Z" style="fill:#f9b19b;fill-rule:nonzero;"/><path d="M110.138,77.243c-0.069,-0.065 -0.134,-0.127 -0.194,-0.185c0.765,-1.54 2.365,-4.938 2.749,-7.151c0.394,-0.609 0.773,-1.376 1.11,-2.343c0.118,0.232 0.234,0.434 0.344,0.602c0.034,0.051 0.068,0.102 0.103,0.152c1.862,2.743 4.79,5.03 7.672,6.005c-0.549,-0.037 -1.18,-0.063 -1.864,-0.063c-3.088,0 -7.257,0.527 -9.92,2.983Z" style="fill:#f69278;fill-rule:nonzero;"/><path d="M119.27,46.823c4.868,-0.892 8.843,0.883 11.752,6.81c1.739,3.543 0.384,7.306 1.839,9.166c0.959,1.226 1.606,0.974 1.201,1.714c-0.543,0.991 -1.766,1.152 -1.766,1.152c0,0 -1.204,7.31 -5.569,8.845c-3.928,1.381 -9.654,-1.914 -12.58,-6.344c-2.152,-3.26 -6.037,-19.299 5.123,-21.343Z" style="fill:#f9b19b;fill-rule:nonzero;"/><path d="M124.761,74.828c0.688,0 1.349,-0.101 1.966,-0.318c-0.617,0.217 -1.278,0.318 -1.966,0.318Z" style="fill:#fcd7b8;fill-rule:nonzero;"/><path d="M124.761,74.828c-3.641,0.001 -8.025,-2.848 -10.511,-6.51c-0.035,-0.05 -0.069,-0.101 -0.103,-0.152c-0.11,-0.168 -0.226,-0.37 -0.344,-0.602c0.456,-1.305 0.838,-2.973 1.083,-5.104c0.156,0.037 0.316,0.056 0.478,0.056c0.204,0 0.411,-0.03 0.622,-0.096l0.853,-4.925c0,0 -0.252,-0.508 -0.72,-0.953c0.725,-1.501 1.539,-2.216 1.539,-2.216c0,0 0.063,0.018 0.18,0.05c-1.07,4.618 -0.461,9.758 0.312,11.583c1.691,3.995 5.357,7.581 8.886,8.412c-0.104,0.045 -0.201,0.101 -0.309,0.139c-0.617,0.217 -1.278,0.318 -1.966,0.318Z" style="fill:#f79f86;fill-rule:nonzero;"/><path d="M103.903,219.282c-1.549,4.491 5.927,28.217 6.654,23.093c0.726,-5.124 3.555,-19.794 3.555,-19.794l0.066,1.934c-2.881,-4.649 -4.262,-10.05 -4.262,-10.05c-3.007,4.532 -4.787,1.264 -6.013,4.817Z" style="fill:#f9b19b;fill-rule:nonzero;"/><path d="M117.658,54.326c0,0 10.308,2.981 14.477,-0.192c4.111,-3.127 3.15,-7.032 3.15,-7.032c0,0 -3.89,1.415 -13.337,-1.394c-6.096,-1.812 -14.873,1.533 -15.512,9.639c-0.656,8.334 4.916,16.214 2.279,16.788c0,0 5.407,1.468 6.332,-11.418c0.314,-4.374 2.611,-6.391 2.611,-6.391Z" style="fill:#200f0e;fill-rule:nonzero;"/><path d="M106.436,55.347c0.001,-0.011 0.002,-0.022 0.003,-0.034c-0.001,0.012 -0.002,0.023 -0.003,0.034Zm0.004,-0.049c0.001,-0.006 0.001,-0.012 0.002,-0.018c-0.001,0.006 -0.001,0.013 -0.002,0.018Zm0.003,-0.036c0.001,-0.004 0.001,-0.008 0.002,-0.012c-0.001,0.005 -0.001,0.008 -0.002,0.012Zm0.006,-0.057c0,-0.001 0,-0.002 0,-0.004c0,0.002 0,0.003 0,0.004Zm0.002,-0.03c0,-0.002 0.001,-0.002 0.001,-0.003c0,0.001 -0.001,0.002 -0.001,0.003Z" style="fill:#200f0e;fill-rule:nonzero;"/><path d="M109.204,72.184c-0.302,0 -0.485,-0.048 -0.489,-0.049c0.51,-0.111 0.713,-0.495 0.713,-1.103c0.002,-2.358 -3.044,-8.079 -3.046,-14.274c0,-0.468 0.017,-0.939 0.054,-1.411c0.001,-0.011 0.002,-0.022 0.003,-0.034c0.001,-0.005 0.001,-0.009 0.001,-0.015c0.001,-0.005 0.001,-0.012 0.002,-0.018c0,-0.005 0.001,-0.012 0.001,-0.018c0.001,-0.004 0.001,-0.007 0.002,-0.012c0.001,-0.015 0.002,-0.03 0.004,-0.045c0,-0.001 0,-0.002 0,-0.004c0.001,-0.008 0.002,-0.018 0.002,-0.026c0,-0.001 0.001,-0.002 0.001,-0.003c0.458,-4.869 3.877,-7.981 7.846,-9.265c-1.035,1.544 -5.593,8.935 -2.34,15.05c1.832,3.443 1.148,7.095 0.012,9.88c-1.08,1.154 -2.162,1.347 -2.766,1.347Z" style="fill:#060505;fill-rule:nonzero;"/><path d="M142.5,180.227l7.355,0l-34.839,46.208l-7.273,-13.016l12.367,-26.123l22.39,-7.069Z" style="fill:#638398;fill-rule:nonzero;"/><path d="M108.627,211.552c1.059,-2.255 2.842,-6.065 4.864,-10.275l-4.864,10.275Zm16.179,-31.257c1.62,-1.598 3.016,-2.704 4.183,-3.469c-1.128,0.802 -2.514,1.917 -4.183,3.469Z" style="fill:#b5b9ad;fill-rule:nonzero;"/><path d="M120.562,187.153c1.812,-3.387 3.358,-5.985 4.244,-6.858c1.669,-1.552 3.055,-2.667 4.183,-3.469c2.386,-1.563 3.817,-1.704 4.255,-1.704c0.096,0 0.144,0.007 0.144,0.007c0,0 -8.013,-10.518 -12.041,-17.414c1.178,-5.801 2.095,-11.596 2.766,-16.401c1.408,10.797 10.217,29.763 14.262,35.611c0,0 -4.012,1.655 -10.259,7.843l-7.554,2.385Z" style="fill:#46667c;fill-rule:nonzero;"/><path d="M107.743,213.419c0.163,-0.335 0.468,-0.982 0.884,-1.867l4.864,-10.275c2.284,-4.755 4.874,-10.019 7.071,-14.124l7.554,-2.385c-5.474,5.423 -12.663,14.327 -20.373,28.651Z" style="fill:#46667c;fill-rule:nonzero;"/><path d="M105.499,186.429c-13.27,0.012 -53.23,-34.435 -53.23,-34.435c0,0 -12.869,-1.832 -18.032,-2.179c-5.164,-0.346 16.971,-9.607 21.563,-8.393c3.635,0.96 1.507,2.977 6.248,5.641c4.741,2.665 27.928,5.599 35.176,12.329c5.819,5.403 5.866,9.274 5.866,9.274c0,0 15.68,17.751 2.409,17.763Z" style="fill:#f9b19b;fill-rule:nonzero;"/><path d="M125.52,129.677c0,0 -4.995,52.858 -16.465,56.063c-11.471,3.206 -11.831,-26.348 -11.831,-26.348c0,0 -1.476,-28.1 1.712,-32.852c3.189,-4.751 26.584,3.137 26.584,3.137Z" style="fill:#638398;fill-rule:nonzero;"/><path d="M116.839,57.495c0,0 -1.372,-2.76 -3.645,-1.043c-2.272,1.718 0.032,6.823 2.792,5.968l0.853,-4.925Z" style="fill:#f9b19b;fill-rule:nonzero;"/><path d="M105.471,76.846l3.926,-0.326l0.049,0.02c0.4,0.456 7.103,7.869 16.258,2.8l0.011,-0.005c0.154,0.019 6.803,0.845 8.35,5.498c0.914,2.748 3.305,45.845 2.125,47.924c-1.178,2.077 -26.773,7.454 -38.742,1.734l-0.034,-0.056c0.089,-1.286 2.403,-34.506 2.41,-34.609l0,-0.003l-0.387,-14.644c-0.101,-3.817 2.366,-7.229 6.021,-8.331l0.013,-0.002Z" style="fill:#f79e1c;fill-rule:nonzero;"/><path d="M106.695,83.986c0,0 -2.379,-6.914 -3.878,-5.959c-7.995,5.093 -25.576,20.874 -25.576,20.874l-27.02,-17.218c0,0 -3.55,-7.98 -3.802,-5.527c-0.692,6.721 0.704,9.314 0.704,9.314c0,0 19.591,24.58 27.527,26.354c9.255,2.068 26.449,-8.023 26.449,-8.023l5.596,-19.815Z" style="fill:#f9b19b;fill-rule:nonzero;"/><path d="M51.317,84.011c0,0 -0.888,0.925 -0.78,-0.797c0.097,-1.534 -2.107,-5.861 -3.228,-7.108c-0.331,-0.368 -1.15,-1.226 -1.253,-2.275c-0.089,-0.903 -0.738,-1.375 -1.089,-0.406c-0.351,0.969 -0.19,1.583 0.461,2.933c0.316,0.656 0.468,1.17 0.285,1.293c-0.321,0.215 -1.732,-1.338 -2.842,-2.927c-1.146,-1.64 -2.442,-3.487 -3.244,-3.653c-0.622,-0.128 -0.549,0.712 0.114,1.84c0.663,1.128 2.752,2.965 2.352,3.526c-0.4,0.561 -2.192,-1.878 -2.844,-2.883c-0.652,-1.004 -0.956,-2.476 -1.77,-2.191c-0.559,0.196 -0.678,0.81 0.023,2.222c0.701,1.413 3.564,3.943 3.122,4.308c-0.443,0.364 -2.802,-2.528 -3.161,-3.174c-0.371,-0.669 -1.137,-0.621 -0.835,0.664c0.302,1.285 1.632,2.466 2.636,3.489c1.004,1.022 1.752,1.306 1.498,1.666c-0.247,0.351 -1.076,-0.008 -1.831,-1.051c-0.755,-1.043 -1.506,-2.175 -1.823,-1.523c-0.316,0.654 0.387,2.366 2.101,3.937c1.715,1.571 4.686,3.068 7.131,3.162c0,0 1.769,0.217 2.228,1.863l2.749,-2.915Z" style="fill:#f9b19b;fill-rule:nonzero;"/><path d="M151.767,77.837c-7.984,2.776 -13.542,2.242 -17.979,1.708c-3.005,-0.361 -5.496,-0.723 -7.877,-0.056c-1.695,0.475 -3.897,6.463 -3.897,6.463l12.427,15.198c0,0 11.034,-3.568 19.841,-8.585c-0.691,-5.736 -2.557,-10.03 -2.515,-14.728Z" style="fill:#f79e1c;fill-rule:nonzero;"/><path d="M89.834,109.194c6.15,-2.394 11.265,-5.393 11.265,-5.393l5.596,-19.815c0,0 -2.079,-6.914 -3.578,-5.959c-5.098,3.247 -13.193,9.551 -18.123,14.278l4.84,16.889Z" style="fill:#f79e1c;fill-rule:nonzero;"/><path d="M77.417,112.103c-0.977,0 -1.907,-0.087 -2.767,-0.279c-0.007,-0.002 -0.014,-0.003 -0.021,-0.005c0.007,0.002 0.014,0.003 0.021,0.005c0.86,0.192 1.79,0.279 2.767,0.279c3.371,0 7.317,-1.037 11.012,-2.378c-3.694,1.341 -7.641,2.378 -11.012,2.378Zm-2.795,-0.286c-0.005,-0.001 -0.01,-0.002 -0.015,-0.003c0.005,0.001 0.01,0.002 0.015,0.003Zm-0.022,-0.005c-0.006,-0.001 -0.011,-0.002 -0.016,-0.003c0.005,0.001 0.01,0.002 0.016,0.003Zm-0.022,-0.005c-0.007,-0.001 -0.014,-0.003 -0.02,-0.005c0.007,0.002 0.013,0.004 0.02,0.005Zm-0.022,-0.005c-0.007,-0.002 -0.015,-0.004 -0.022,-0.006c0.007,0.002 0.015,0.004 0.022,0.006Zm-0.026,-0.007c-0.006,-0.001 -0.012,-0.003 -0.018,-0.004c0.006,0.001 0.012,0.003 0.018,0.004Zm-0.024,-0.005c-0.006,-0.002 -0.012,-0.004 -0.019,-0.005c0.007,0.001 0.013,0.003 0.019,0.005Zm-0.021,-0.006c-0.024,-0.006 -0.047,-0.012 -0.071,-0.019c0.024,0.007 0.047,0.013 0.071,0.019Zm-0.072,-0.019c-0.007,-0.002 -0.015,-0.004 -0.023,-0.006c0.008,0.002 0.015,0.004 0.023,0.006Zm-0.023,-0.006c-5.154,-1.422 -14.796,-11.688 -21.122,-18.96c6.327,7.273 15.969,17.537 21.122,18.96Zm14.042,-2.035c0.037,-0.014 0.073,-0.027 0.11,-0.04c-0.036,0.013 -0.073,0.026 -0.11,0.04Zm0.131,-0.048c0.005,-0.002 0.009,-0.003 0.013,-0.005c-0.005,0.002 -0.008,0.003 -0.013,0.005Z" style="fill:#fccead;fill-rule:nonzero;"/><path d="M77.417,112.103c-0.977,0 -1.907,-0.087 -2.767,-0.279c-0.007,-0.002 -0.014,-0.003 -0.021,-0.005c-0.003,-0.001 -0.005,-0.001 -0.007,-0.002c-0.005,-0.001 -0.01,-0.002 -0.015,-0.003c-0.003,-0.001 -0.005,-0.001 -0.007,-0.002c-0.006,-0.001 -0.011,-0.002 -0.016,-0.003c-0.002,-0.001 -0.004,-0.001 -0.006,-0.002c-0.007,-0.001 -0.013,-0.003 -0.02,-0.005c-0.001,0 -0.001,0 -0.002,0c-0.007,-0.002 -0.015,-0.004 -0.022,-0.006c-0.002,0 -0.003,0 -0.004,-0.001c-0.006,-0.001 -0.012,-0.003 -0.018,-0.004c-0.002,0 -0.004,-0.001 -0.006,-0.001c-0.006,-0.002 -0.012,-0.004 -0.019,-0.005c-0.001,-0.001 -0.002,-0.001 -0.002,-0.001c-0.024,-0.006 -0.047,-0.012 -0.071,-0.019l-0.001,0c-0.008,-0.002 -0.015,-0.004 -0.023,-0.006c-5.153,-1.423 -14.795,-11.687 -21.122,-18.96c-1.661,-1.908 -3.093,-3.61 -4.155,-4.892c0.042,0.045 14.965,16.207 27.942,16.207c0.473,0 0.945,-0.022 1.412,-0.066c3.377,-0.322 6.486,-1.174 9.244,-2.264l2.123,7.41c2.646,-1.03 5.1,-2.172 7.038,-3.138l-0.01,0.006c-2.241,1.118 -5.169,2.469 -8.286,3.609c-0.004,0.002 -0.008,0.003 -0.013,0.005c-0.006,0.002 -0.014,0.005 -0.021,0.008c-0.037,0.013 -0.073,0.026 -0.11,0.04c-0.001,0 -0.002,0 -0.003,0.001c-3.695,1.341 -7.641,2.378 -11.012,2.378Z" style="fill:#f6977e;fill-rule:nonzero;"/><path d="M89.834,109.194l-2.123,-7.41c8.104,-3.204 13.185,-8.475 13.185,-8.475l-1.528,11.151l-2.496,1.596c-1.938,0.966 -4.392,2.108 -7.038,3.138Z" style="fill:#f6881f;fill-rule:nonzero;"/><path d="M103.09,168.666c0,0 -0.047,-3.871 -5.866,-9.274c-7.248,-6.73 -36.506,-14.676 -36.904,-15.029l-8.243,8.983c7.201,6.08 41.637,33.093 53.422,33.083c13.271,-0.012 -2.409,-17.763 -2.409,-17.763Z" style="fill:#638398;fill-rule:nonzero;"/><path d="M97.041,164.578c-7.873,-8.297 -21.569,-13.948 -30.326,-17.14c-0.124,-0.404 -0.295,-0.813 -0.516,-1.224c9.022,2.805 25.782,8.31 31.025,13.178l-0.183,5.186Z" style="fill:#46667c;fill-rule:nonzero;"/><path d="M99.392,145.974c-0.083,0 -0.127,-0.001 -0.127,-0.001c8.188,-1.281 14,-7.895 14,-7.895c-3.977,7.64 -12.717,7.896 -13.873,7.896Z" style="fill:#46667c;fill-rule:nonzero;"/><path d="M99.264,161.474c-0.249,-0.283 -0.515,-0.571 -0.798,-0.865c0.061,-1.842 -0.003,-3.696 -0.131,-5.537c-0.111,-1.581 -0.353,-3.144 -0.531,-4.749c-0.144,-1.599 -0.233,-3.203 -0.204,-4.807c0.087,-3.201 0.431,-6.419 1.393,-9.471c-0.769,3.099 -1.015,6.299 -0.96,9.471c0.046,1.587 0.15,3.169 0.339,4.744c0.211,1.562 0.505,3.147 0.665,4.747c0.228,2.143 0.325,4.305 0.227,6.467Z" style="fill:#58788e;fill-rule:nonzero;"/><path d="M97.025,168.623c-0.085,0 -0.17,-0.011 -0.246,-0.036c-0.37,-0.108 -0.561,-0.402 -0.673,-0.508c-1.039,-1.131 -2.245,-2.204 -3.421,-3.258c-2.366,-2.118 -4.82,-4.145 -7.368,-6.039c-2.545,-1.897 -5.196,-3.655 -7.99,-5.125c-2.837,-1.427 -5.767,-2.69 -8.701,-3.932c-0.556,-0.238 -1.114,-0.473 -1.672,-0.706c0.001,-0.132 -0.003,-0.264 -0.013,-0.398c3.614,1.333 7.189,2.774 10.695,4.406c2.911,1.397 5.606,3.169 8.193,5.06c2.591,1.889 5.082,3.906 7.49,6.021c1.191,1.084 2.366,2.145 3.476,3.374c0.146,0.171 0.21,0.225 0.237,0.235c0.011,-0.005 0.036,-0.022 0.086,-0.067c0.178,-0.185 0.344,-0.54 0.466,-0.882c0.251,-0.705 0.409,-1.475 0.534,-2.245c0.196,-1.292 0.304,-2.6 0.348,-3.914c0.283,0.294 0.549,0.582 0.798,0.865c-0.047,1.061 -0.142,2.122 -0.291,3.181c-0.124,0.805 -0.276,1.608 -0.552,2.41c-0.15,0.401 -0.294,0.805 -0.656,1.211c-0.099,0.101 -0.22,0.204 -0.393,0.278c-0.101,0.045 -0.224,0.069 -0.347,0.069Zm0.004,-0.904c-0.001,0 -0.001,0 -0.002,0c-0.001,0.001 -0.002,0.001 -0.001,0.001c0,0 0.001,0 0.003,-0.001Z" style="fill:#58788e;fill-rule:nonzero;"/><path d="M115.364,62.516c-0.162,0 -0.322,-0.019 -0.478,-0.056c-1.477,-0.351 -2.614,-2.261 -2.615,-3.93c0,-0.823 0.276,-1.588 0.923,-2.078c0.54,-0.407 1.028,-0.563 1.46,-0.563c1.387,0 2.185,1.606 2.185,1.606l-0.853,4.925c-0.211,0.066 -0.418,0.096 -0.622,0.096Z" style="fill:#f79f86;fill-rule:nonzero;"/><path d="M58.807,143.229c-1.965,-1.635 -1.071,-2.875 -3.818,-4.072c-1.542,-0.671 -24.156,5.699 -25.58,10.541c-1.004,3.414 4.729,2.99 10.567,2.567c2.261,-0.164 4.538,-0.328 6.446,-0.269c3.369,-5.441 12.385,-8.767 12.385,-8.767Z" style="fill:#3c2a2e;fill-rule:nonzero;"/><path d="M59.552,144.123c-1.965,-1.636 -2.178,-4.177 -4.245,-4.026c-2.078,0.151 -22.696,6.52 -24.989,11.018c-0.965,1.893 6.055,1.482 12.842,1.071c3.326,-0.201 6.595,-0.402 8.843,-0.333c3.369,-5.441 7.549,-7.73 7.549,-7.73Z" style="fill:#be3128;fill-rule:nonzero;"/><path d="M49.101,147.115c0.361,0.862 0.428,1.784 0.326,2.702c-0.072,0.457 -0.188,0.922 -0.427,1.347c-0.215,0.42 -0.64,0.828 -1.126,0.848c0.369,-0.292 0.496,-0.683 0.613,-1.069c0.101,-0.394 0.176,-0.802 0.23,-1.221c0.116,-0.843 0.183,-1.702 0.384,-2.607Z" style="fill:#3c2a2e;fill-rule:nonzero;"/><path d="M47.311,147.74c0.125,0.375 0.176,0.76 0.201,1.146c0.031,0.387 0.008,0.776 -0.043,1.164c-0.067,0.386 -0.156,0.776 -0.341,1.139c-0.179,0.349 -0.477,0.739 -0.895,0.783c0.306,-0.251 0.412,-0.59 0.509,-0.931c0.076,-0.352 0.144,-0.706 0.195,-1.07c0.114,-0.728 0.191,-1.468 0.374,-2.231Z" style="fill:#3c2a2e;fill-rule:nonzero;"/><path d="M45.735,148.341c0.141,0.322 0.207,0.659 0.248,0.999c0.046,0.34 0.033,0.684 -0.004,1.029c-0.055,0.343 -0.138,0.693 -0.322,1.01c-0.169,0.31 -0.472,0.627 -0.843,0.638c0.27,-0.224 0.381,-0.507 0.462,-0.801c0.071,-0.298 0.131,-0.603 0.171,-0.918c0.088,-0.633 0.14,-1.278 0.288,-1.957Z" style="fill:#3c2a2e;fill-rule:nonzero;"/><path d="M44.434,148.481c0.141,0.322 0.207,0.659 0.248,0.998c0.046,0.34 0.033,0.685 -0.004,1.031c-0.055,0.342 -0.138,0.692 -0.323,1.009c-0.168,0.31 -0.471,0.626 -0.842,0.637c0.27,-0.222 0.381,-0.507 0.462,-0.8c0.071,-0.298 0.131,-0.603 0.17,-0.919c0.089,-0.631 0.14,-1.277 0.289,-1.956Z" style="fill:#3c2a2e;fill-rule:nonzero;"/><path d="M43.132,148.621c0.141,0.322 0.208,0.659 0.248,0.998c0.047,0.341 0.034,0.685 -0.003,1.03c-0.056,0.343 -0.139,0.694 -0.323,1.01c-0.169,0.311 -0.472,0.626 -0.843,0.637c0.271,-0.223 0.382,-0.506 0.463,-0.801c0.071,-0.298 0.131,-0.602 0.17,-0.918c0.089,-0.632 0.14,-1.277 0.288,-1.956Z" style="fill:#3c2a2e;fill-rule:nonzero;"/><path d="M41.547,149.145c0.237,0.543 0.251,1.125 0.206,1.705c-0.059,0.286 -0.121,0.581 -0.271,0.849c-0.142,0.261 -0.397,0.527 -0.709,0.535c0.228,-0.187 0.321,-0.425 0.389,-0.672c0.064,-0.249 0.123,-0.505 0.143,-0.773c0.093,-0.53 0.107,-1.074 0.242,-1.644Z" style="fill:#3c2a2e;fill-rule:nonzero;"/><path d="M106.664,216.553c-1.986,1.609 -3.029,0.492 -4.735,2.954c-0.959,1.383 0.899,24.804 5.374,27.139c4.375,2.286 4.023,-9.58 5.557,-16.243c-4.684,-4.36 -6.196,-13.85 -6.196,-13.85Z" style="fill:#3c2a2e;fill-rule:nonzero;"/><path d="M107.685,215.995c-1.985,1.609 -4.519,1.325 -4.773,3.383c-0.255,2.068 1.99,23.529 5.958,26.651c2.487,1.959 3.399,-14.465 4.933,-21.128c-4.684,-4.361 -6.118,-8.906 -6.118,-8.906Z" style="fill:#be3128;fill-rule:nonzero;"/><path d="M108.591,226.828c0.915,-0.187 1.834,-0.074 2.715,0.204c0.434,0.16 0.867,0.364 1.238,0.681c0.37,0.293 0.688,0.788 0.613,1.269c-0.215,-0.419 -0.574,-0.619 -0.929,-0.808c-0.367,-0.177 -0.753,-0.329 -1.154,-0.464c-0.804,-0.276 -1.634,-0.51 -2.483,-0.882Z" style="fill:#3c2a2e;fill-rule:nonzero;"/><path d="M108.856,228.705c0.393,-0.05 0.781,-0.024 1.165,0.025c0.386,0.045 0.762,0.143 1.133,0.268c0.366,0.141 0.731,0.304 1.051,0.557c0.308,0.242 0.632,0.61 0.594,1.029c-0.187,-0.349 -0.499,-0.519 -0.815,-0.68c-0.329,-0.143 -0.664,-0.279 -1.011,-0.399c-0.692,-0.253 -1.403,-0.473 -2.117,-0.8Z" style="fill:#3c2a2e;fill-rule:nonzero;"/><path d="M109.141,230.368c0.343,-0.076 0.687,-0.076 1.027,-0.05c0.343,0.021 0.679,0.101 1.01,0.203c0.325,0.122 0.653,0.271 0.928,0.513c0.271,0.226 0.523,0.585 0.461,0.951c-0.166,-0.309 -0.422,-0.473 -0.695,-0.609c-0.279,-0.128 -0.566,-0.246 -0.868,-0.346c-0.603,-0.21 -1.226,-0.384 -1.863,-0.662Z" style="fill:#3c2a2e;fill-rule:nonzero;"/><path d="M109.026,231.672c0.343,-0.076 0.686,-0.076 1.027,-0.05c0.343,0.021 0.678,0.101 1.01,0.203c0.325,0.121 0.653,0.271 0.928,0.513c0.271,0.225 0.523,0.585 0.461,0.951c-0.166,-0.31 -0.423,-0.474 -0.696,-0.609c-0.278,-0.128 -0.566,-0.246 -0.867,-0.346c-0.603,-0.21 -1.226,-0.385 -1.863,-0.662Z" style="fill:#3c2a2e;fill-rule:nonzero;"/><path d="M108.911,232.976c0.343,-0.077 0.686,-0.077 1.027,-0.05c0.342,0.02 0.678,0.1 1.009,0.203c0.326,0.121 0.654,0.27 0.928,0.513c0.272,0.225 0.523,0.585 0.462,0.951c-0.166,-0.31 -0.423,-0.474 -0.696,-0.61c-0.279,-0.128 -0.566,-0.246 -0.868,-0.345c-0.602,-0.21 -1.226,-0.385 -1.862,-0.662Z" style="fill:#3c2a2e;fill-rule:nonzero;"/><path d="M109.116,234.632c0.579,-0.127 1.153,-0.028 1.713,0.129c0.269,0.113 0.546,0.231 0.78,0.431c0.228,0.19 0.44,0.492 0.388,0.799c-0.14,-0.26 -0.355,-0.397 -0.585,-0.512c-0.231,-0.112 -0.471,-0.218 -0.729,-0.291c-0.503,-0.193 -1.034,-0.313 -1.567,-0.556Z" style="fill:#3c2a2e;fill-rule:nonzero;"/><path d="M161.649,88.061c0.007,-0.005 0.013,-0.01 0.019,-0.015c3.411,-2.676 9.641,-10.629 14.684,-17.6c-5.043,6.971 -11.273,14.924 -14.684,17.6c-0.006,0.005 -0.013,0.01 -0.019,0.015Z" style="fill:#fbc7a5;fill-rule:nonzero;"/><path d="M154.263,92.411c-0.25,-2.002 -0.641,-3.83 -1.039,-5.561c3.507,-1.216 6.216,-2.408 7.811,-3.323c4.846,-2.779 23.049,-24.63 23.049,-24.63c-0.092,0.199 -0.248,0.485 -0.462,0.848c-1.148,1.953 -3.952,6.114 -7.27,10.701c-5.043,6.971 -11.273,14.924 -14.684,17.6c-0.006,0.005 -0.012,0.01 -0.019,0.015c-1.653,1.292 -4.343,2.816 -7.386,4.35Z" style="fill:#f69278;fill-rule:nonzero;"/><path d="M135.363,100.734l-0.581,-9.362c7.127,-1.093 13.558,-2.83 18.442,-4.522c0.398,1.731 0.789,3.559 1.039,5.561c-8.177,4.123 -18.9,8.323 -18.9,8.323Z" style="fill:#f4821f;fill-rule:nonzero;"/><path d="M32.237,149.153c-0.696,-0.217 -1.393,-0.435 -2.09,-0.654c0.016,-0.019 0.034,-0.038 0.051,-0.056c0.704,0.221 1.407,0.441 2.109,0.66c-0.024,0.017 -0.047,0.033 -0.07,0.05Z" style="fill:#362626;fill-rule:nonzero;"/><path d="M42.081,152.251c-0.269,-0.087 -0.539,-0.175 -0.811,-0.263c0.018,-0.018 0.035,-0.036 0.051,-0.055c0.316,0.103 0.63,0.205 0.942,0.307c-0.061,0.004 -0.122,0.008 -0.182,0.011Zm-1.049,-0.34c-2.829,-0.912 -5.797,-1.824 -8.795,-2.758c0.023,-0.017 0.046,-0.033 0.07,-0.05c2.985,0.929 5.941,1.838 8.755,2.747c-0.009,0.02 -0.019,0.041 -0.03,0.061Z" style="fill:#a82923;fill-rule:nonzero;"/><path d="M42.216,152.296c-0.001,-0.001 -0.002,-0.001 -0.003,-0.001c0.02,-0.017 0.04,-0.034 0.058,-0.052c0.032,0.011 0.062,0.021 0.094,0.031c-0.048,0.012 -0.098,0.02 -0.149,0.022Z" style="fill:#362626;fill-rule:nonzero;"/><path d="M41.27,151.988c-0.079,-0.026 -0.158,-0.051 -0.238,-0.077c0.011,-0.02 0.021,-0.041 0.03,-0.061c0.086,0.027 0.173,0.056 0.259,0.083c-0.016,0.019 -0.033,0.037 -0.051,0.055Z" style="fill:#362626;fill-rule:nonzero;"/><path d="M45.324,153.34c0.012,-0.019 0.024,-0.037 0.036,-0.056c-0.012,0.019 -0.024,0.037 -0.036,0.056Z" style="fill:#dea17f;fill-rule:nonzero;"/></g></svg>